<?xml version="1.0" encoding="iso-8859-1"?>
<!-- Generator: Adobe Illustrator 19.0.0, SVG Export Plug-In . SVG Version: 6.00 Build 0)  -->
<svg version="1.1" id="Capa_1" xmlns="http://www.w3.org/2000/svg" xmlns:xlink="http://www.w3.org/1999/xlink" x="0px" y="0px"
	 viewBox="0 0 512 512" style="enable-background:new 0 0 512 512;" xml:space="preserve">
<path style="fill:#373C41;" d="M185.028,462.582c-6.215,0-11.253-5.038-11.253-11.253v-91.034c0-17.208,13.95-31.158,31.158-31.158
	s31.158,13.95,31.158,31.158v91.034c0,6.215-5.038,11.253-11.253,11.253L185.028,462.582L185.028,462.582z"/>
<path style="fill:#272A2E;" d="M400.113,462.582c-6.215,0-11.253-5.038-11.253-11.253v-93.52c0-15.836,13.95-28.673,31.158-28.673
	c17.208,0,31.158,12.837,31.158,28.673v93.52c0,6.215-5.038,11.253-11.253,11.253L400.113,462.582L400.113,462.582z"/>
<g>
	<rect x="185.132" y="415.024" style="fill:#50555A;" width="12.619" height="47.554"/>
	<rect x="212.117" y="415.024" style="fill:#50555A;" width="12.619" height="47.554"/>
	<rect x="400.221" y="415.024" style="fill:#50555A;" width="12.619" height="47.554"/>
	<rect x="427.206" y="415.024" style="fill:#50555A;" width="12.619" height="47.554"/>
</g>
<path style="fill:#D72846;" d="M182.736,298.892c-2.634,0-5.263-1.039-7.219-3.102l-27.755-29.263
	c-3.78-3.986-3.613-10.281,0.372-14.061c3.987-3.781,10.282-3.613,14.061,0.372l27.755,29.263c3.78,3.986,3.613,10.281-0.372,14.061
	C187.655,297.987,185.193,298.892,182.736,298.892z"/>
<path style="fill:#F75C66;" d="M126.808,272.449h27.913c7.807,0,14.136-6.329,14.136-14.136v-10.756
	c0-7.807-6.329-14.136-14.136-14.136h-27.913c-7.807,0-14.136,6.329-14.136,14.136v10.756
	C112.672,266.12,119.001,272.449,126.808,272.449z"/>
<path style="fill:#D72846;" d="M435.094,296.162c-3.986-3.78-4.153-10.075-0.372-14.061l27.754-29.263
	c3.78-3.986,10.075-4.153,14.061-0.372c3.986,3.779,4.153,10.075,0.372,14.061l-27.754,29.263
	C445.375,299.775,439.079,299.943,435.094,296.162z"/>
<path style="fill:#E64B55;" d="M497.864,272.449h-27.913c-7.807,0-14.136-6.329-14.136-14.136v-10.756
	c0-7.807,6.329-14.136,14.136-14.136h27.913c7.807,0,14.136,6.329,14.136,14.136v10.756C512,266.12,505.671,272.449,497.864,272.449
	z"/>
<polygon style="fill:#A0EBFF;" points="440.202,283.559 184.83,283.559 204.107,169.977 420.926,169.977 "/>
<path style="fill:#373C41;" d="M334.183,206.156c0,2.545-2.063,4.608-4.608,4.608h-34.476c-2.545,0-4.608-2.063-4.608-4.608v-8.98
	c0-2.545,2.063-4.608,4.608-4.608h34.476c2.545,0,4.608,2.063,4.608,4.608V206.156z"/>
<path style="fill:#D72846;" d="M455.597,292.764c1.472,7.894-4.59,15.203-12.63,15.203H181.985c-3.82,0-7.441-1.7-9.881-4.638
	c-2.441-2.938-3.448-6.81-2.748-10.565l23.176-124.245c1.134-6.082,6.442-10.491,12.63-10.491h214.631
	c6.187,0,11.495,4.409,12.63,10.491L455.597,292.764z M197.45,282.273h230.053l-18.384-98.551H215.833L197.45,282.273z"/>
<path style="fill:#696E73;" d="M366.235,232.304c-22.28,0-40.405,18.126-40.405,40.406c0,22.28,18.126,40.406,40.405,40.406
	c22.28,0,40.406-18.126,40.406-40.406C406.641,250.43,388.515,232.304,366.235,232.304z M366.235,300.265
	c-15.194,0-27.555-12.36-27.555-27.555c0-9.136,4.474-17.234,11.345-22.242c4.048-2.951,9.785-0.078,9.785,4.982
	c-0.283,4.928,0.844,8.035-1.658,11.578c-1.134,1.607-1.803,3.565-1.803,5.682c0,3.004,1.344,5.689,3.459,7.503v6.708h12.851v-6.707
	c2.115-1.814,3.46-4.499,3.46-7.503c0-2.117-0.668-4.076-1.803-5.683c-2.502-3.544-1.374-6.683-1.658-11.578
	c0-5.034,5.73-7.937,9.785-4.981c6.87,5.008,11.346,13.106,11.346,22.242C393.79,287.903,381.429,300.265,366.235,300.265z"/>
<path style="fill:#373C41;" d="M366.236,313.115c-22.28,0-40.405-18.126-40.405-40.406c0-22.28,18.126-40.406,40.405-40.406
	c22.28,0,40.406,18.126,40.406,40.406C406.642,294.99,388.515,313.115,366.236,313.115z M366.236,245.154
	c-15.194,0-27.555,12.361-27.555,27.556s12.361,27.555,27.555,27.555c15.194,0,27.556-12.361,27.556-27.555
	C393.79,257.515,381.43,245.154,366.236,245.154z"/>
<g style="opacity:0.22;">
	<path d="M236.093,435.297v-75.004c0-17.208-13.95-31.158-31.158-31.158s-31.158,13.95-31.158,31.158v63.438L236.093,435.297z"/>
	<path d="M451.177,435.297v-75.004c0-17.208-13.95-31.158-31.158-31.158c-17.208,0-31.158,13.95-31.158,31.158v63.438
		L451.177,435.297z"/>
</g>
<path style="fill:#E64B55;" d="M478.124,390.044c0,13.796-11.183,24.979-24.979,24.979H171.808
	c-13.796,0-24.979-11.183-24.979-24.979v-51.931c0-36.861,29.882-66.743,66.743-66.743h197.81c36.861,0,66.743,29.882,66.743,66.743
	V390.044z"/>
<path style="fill:#50555A;" d="M148.168,397.917c3.293,9.929,12.603,17.107,23.639,17.107h281.338
	c11.036,0,20.346-7.178,23.639-17.107H148.168z"/>
<g>
	<path style="fill:#D72846;" d="M361.75,397.917h-97.594c-5.349,0-9.685-4.336-9.685-9.685v-48.894c0-5.349,4.336-9.685,9.685-9.685
		h97.594c5.349,0,9.685,4.336,9.685,9.685v48.894C371.435,393.581,367.099,397.917,361.75,397.917z"/>
	<ellipse style="fill:#D72846;" cx="204.109" cy="351.065" rx="27.334" ry="27.35"/>
	<ellipse style="fill:#D72846;" cx="420.85" cy="351.065" rx="27.334" ry="27.35"/>
</g>
<g>
	<ellipse style="fill:#FAC855;" cx="204.109" cy="344.639" rx="27.334" ry="27.35"/>
	<ellipse style="fill:#FAC855;" cx="420.85" cy="344.639" rx="27.334" ry="27.35"/>
</g>
<path style="fill:#B9B9BE;" d="M339.97,402.448h-54.033c-3.126,0-5.66-2.534-5.66-5.66v-14.239c0-3.126,2.534-5.66,5.66-5.66h54.033
	c3.126,0,5.66,2.534,5.66,5.66v14.239C345.63,399.913,343.097,402.448,339.97,402.448z"/>
<path style="fill:#D2D2D7;" d="M339.97,376.888h-54.033c-3.126,0-5.66,2.533-5.66,5.66v6.425c0-3.126,2.534-5.66,5.66-5.66h54.033
	c3.126,0,5.66,2.533,5.66,5.66v-6.425C345.63,379.421,343.097,376.888,339.97,376.888z"/>
<g>
	<ellipse style="fill:#FAF58C;" cx="420.85" cy="344.639" rx="15.497" ry="15.506"/>
	<ellipse style="fill:#FAF58C;" cx="204.109" cy="344.639" rx="15.497" ry="15.506"/>
</g>
<path style="fill:#E64B55;" d="M350.831,341.31h-75.754c-4.412,0-7.988,3.576-7.988,7.988c0,4.412,3.577,7.988,7.988,7.988h75.754
	c4.412,0,7.988-3.577,7.988-7.988S355.243,341.31,350.831,341.31z"/>
<path style="fill:#F75C66;" d="M396.045,298.56c-6.262,8.694-16.323,13.847-27.038,13.847H250.47
	c-7.277,0-14.109-3.499-18.362-9.404l-22.784-31.634H415.63L396.045,298.56z"/>
<g>
	<path style="fill:#FA870A;" d="M173.776,376.754c0-3.481-2.822-6.303-6.303-6.303h-20.412v22.96h20.412
		c3.481,0,6.303-2.822,6.303-6.303V376.754z"/>
	<path style="fill:#FA870A;" d="M457.93,370.451c-3.481,0-6.303,2.822-6.303,6.303v10.354c0,3.481,2.822,6.303,6.303,6.303h19.963
		c0.148-1.102,0.232-2.224,0.232-3.367V370.45H457.93V370.451z"/>
</g>
<rect x="305.083" y="183.72" style="fill:#696E73;" width="15.743" height="8.844"/>
<g style="opacity:0.38;">
	<polygon style="fill:#FFFFFF;" points="295.63,183.722 271.213,183.722 223.664,271.369 248.081,271.369 	"/>
</g>
<g style="opacity:0.36;">
	<polygon style="fill:#FFFFFF;" points="322.617,183.722 308.481,183.722 260.932,271.369 275.068,271.369 	"/>
</g>
<g>
	<path style="fill:#FFC305;" d="M259.159,213.958l-12.461-1.519c-0.961-0.117-1.545-1.119-1.173-2.013l11.422-27.461
		c0.525-1.263-0.14-2.707-1.442-3.126l-7.108-2.293l0,0l0,0l-7.172-2.314c-1.258-0.405-2.591,0.373-2.864,1.667
		c-9.303,44.21-8.508,39.211-8.428,41.072c0.121,2.793,2.421,4.887,5.207,4.649l10.847-0.924c0.402-0.034,0.8,0.104,1.094,0.379
		c0.294,0.275,0.458,0.664,0.45,1.067l-0.399,21.083c-0.007,0.386,0.254,0.726,0.631,0.818c0.375,0.091,0.764-0.09,0.935-0.437
		l12.884-26.171C262.533,216.475,261.268,214.215,259.159,213.958z"/>
	<path style="fill:#FFC305;" d="M295.641,235.109l-13.307-1.622c-0.903-0.11-1.444-1.061-1.077-1.894l12.093-27.431
		c0.564-1.279-0.103-2.766-1.433-3.194l-14.355-4.631c-1.181-0.381-2.432,0.343-2.69,1.557l-8.38,39.523
		c-0.714,3.453,2.103,6.613,5.604,6.315l16.142-1.375c0.508-0.043,1.006,0.162,1.335,0.551c0.329,0.389,0.449,0.914,0.323,1.408
		l-4.963,19.345c-0.074,0.287,0.082,0.584,0.36,0.687s0.59-0.021,0.721-0.287l12.048-24.475
		C299.015,237.626,297.75,235.365,295.641,235.109z"/>
	<path style="fill:#FFC305;" d="M337.45,220.833c-0.068-1.24-1.128-2.191-2.369-2.123c-0.097,0.005-3.69,0.202-5.482,0.3
		c-0.491,0.027-0.864-0.428-0.747-0.907l3.239-13.279c0.28-1.149-0.525-2.279-1.704-2.389l-10.594-0.988
		c-1.118-0.104-2.067,0.817-2.007,1.937c1.269,23.943,1.044,21.22,1.382,22.295c0.607,1.929,2.593,2.965,4.495,2.277l7.153-2.587
		c0.358-0.13,0.758-0.078,1.071,0.139s0.501,0.573,0.507,0.954l0.101,9.185c0.002,0.194,0.146,0.357,0.339,0.383
		c0.192,0.026,0.375-0.093,0.428-0.28C337.573,220.755,337.485,221.472,337.45,220.833z"/>
</g>
<path style="fill:#6E7B85;" d="M73.141,115.088c-2.908,0-5.71-1.594-7.119-4.364L43.774,66.979
	c-1.997-3.928-0.432-8.731,3.495-10.729c3.93-1.997,8.732-0.432,10.729,3.495l22.247,43.747c1.997,3.928,0.432,8.731-3.495,10.729
	C75.592,114.809,74.357,115.088,73.141,115.088z"/>
<path style="fill:#343E6B;" d="M153.896,462.582c-10.875,0-19.691-8.816-19.691-19.691V285.496c0-10.875,8.816-19.691,19.691-19.691
	s19.691,8.816,19.691,19.691V442.89C173.587,453.765,164.772,462.582,153.896,462.582z"/>
<path style="fill:#414B82;" d="M106.361,462.582c-10.875,0-19.691-8.816-19.691-19.691V285.496c0-10.875,8.816-19.691,19.691-19.691
	s19.691,8.816,19.691,19.691V442.89C126.053,453.765,117.237,462.582,106.361,462.582z"/>
<path style="fill:#252D5C;" d="M213.611,166.543c-0.107-21.305-17.799-38.638-39.438-38.638h-58.086
	c-0.028,0-0.056-0.004-0.084-0.004H86.952c-0.056,0-0.112,0.004-0.168,0.004H86.08c-0.01,0-0.02,0.001-0.029,0.001v0.018
	c-4.272,0.114-8.487,1.025-12.42,2.71l-24.175,10.355l20.552-44.073c3.828-8.209,0.276-17.967-7.932-21.794
	c-8.209-3.828-17.967-0.277-21.794,7.932L1.584,166.036c-6.346,13.61,7.514,27.921,21.321,22.006l63.765-24.881v122.335h86.917
	V160.723h0.587c3.438,0,6.585,2.835,6.619,5.956v120.499c0,9.062,7.347,16.409,16.409,16.409s16.409-7.347,16.409-16.409V166.625
	C213.611,166.597,213.611,166.57,213.611,166.543z"/>
<path style="fill:#1B224A;" d="M213.611,166.542c-0.107-21.305-17.799-38.638-39.438-38.638c-5.203,0-38.877,0-44.05,0v157.592
	h43.463V160.723h0.587c3.438,0,6.584,2.835,6.619,5.956v120.499c0,9.062,7.347,16.409,16.409,16.409s16.409-7.347,16.409-16.409
	V166.625C213.611,166.597,213.611,166.57,213.611,166.542z"/>
<path style="fill:#FFFFFF;" d="M180.788,278.714v8.464c0,9.062,7.347,16.409,16.409,16.409s16.409-7.347,16.409-16.409v-8.464
	H180.788z"/>
<path style="fill:#FFB69E;" d="M180.788,286.755v0.422c0,9.062,7.347,16.409,16.409,16.409s16.409-7.347,16.409-16.409v-0.422
	H180.788z"/>
<circle style="fill:#FFB69E;" cx="130.121" cy="83.427" r="34.009"/>
<polygon style="fill:#FFFFFF;" points="105.086,127.905 130.124,193.612 155.168,127.905 "/>
<path style="fill:#CD2D23;" d="M141.014,150.273l-5.562-10.116l4.793-8.719c0.872-1.585-0.277-3.532-2.089-3.532h-16.071
	c-1.81,0-2.962,1.945-2.089,3.532l4.81,8.748l-5.547,10.088c-0.768,1.397-1.018,3.02-0.706,4.583l3.421,17.369l8.147,21.386
	l8.155-21.39l3.441-17.364C142.033,153.295,141.782,151.67,141.014,150.273z"/>
<path style="fill:#B71A16;" d="M141.014,150.273l-5.562-10.116l4.793-8.719c0.872-1.585-0.276-3.532-2.089-3.532h-8.033v65.693
	v0.014l8.155-21.39l3.441-17.363C142.033,153.295,141.782,151.67,141.014,150.273z"/>
<rect x="142.252" y="178.395" style="fill:#252D5C;" width="21.677" height="6.685"/>
<path style="fill:#FFB69E;" d="M70.003,96.902c3.828-8.209,0.276-17.967-7.932-21.794c-8.209-3.828-17.967-0.277-21.794,7.932
	L70.003,96.902z"/>
<polygon style="fill:#FFFFFF;" points="66.927,103.522 37.233,89.587 40.275,83.033 69.995,96.902 "/>
<g>
</g>
<g>
</g>
<g>
</g>
<g>
</g>
<g>
</g>
<g>
</g>
<g>
</g>
<g>
</g>
<g>
</g>
<g>
</g>
<g>
</g>
<g>
</g>
<g>
</g>
<g>
</g>
<g>
</g>
</svg>
