<?xml version="1.0" encoding="iso-8859-1"?>
<!-- Generator: Adobe Illustrator 19.0.0, SVG Export Plug-In . SVG Version: 6.00 Build 0)  -->
<svg version="1.1" id="Capa_1" xmlns="http://www.w3.org/2000/svg" xmlns:xlink="http://www.w3.org/1999/xlink" x="0px" y="0px"
	 viewBox="0 0 436.1 436.1" style="enable-background:new 0 0 436.1 436.1;" xml:space="preserve">
<g>
	<path style="fill:#D4E1F4;" d="M402.66,359.03v50.95c-0.005,14.428-11.702,26.121-26.13,26.12h-21.77
		c-14.424-0.004-26.116-11.696-26.12-26.12v-24.82h47.89C390.961,385.159,402.659,373.461,402.66,359.03z"/>
	<path style="fill:#00EFD1;" d="M402.66,354.5v6.53c-0.001,14.431-11.699,26.129-26.13,26.13H59.57
		c-14.431-0.001-26.129-11.699-26.13-26.13v-65.01c-0.001-11.51,5.06-22.438,13.84-29.88l14.9-12.65h316.96v0.44l11.24,10.61
		c7.834,7.401,12.276,17.702,12.28,28.48V354.5z"/>
	<path style="fill:#D4E1F4;" d="M350.63,173.01l29.82,80.48H341.7c0-26.692-21.638-48.33-48.33-48.33
		c-26.692,0-48.33,21.638-48.33,48.33H60.87l29.82-80.48c3.8-10.245,13.572-17.046,24.5-17.05h210.94
		C337.058,155.964,346.83,162.764,350.63,173.01z"/>
	<path style="fill:#00ACEA;" d="M380.21,38.68l-38.91-3.24l-0.22,0.3c-8.5,11.176-8.41,26.674,0.22,37.75v0.01l38.68-3.01
		c-6.86,27.47-28.15,40.97-53.32,40.97c-23.12,0.23-43.03-15.11-51.5-33.19H163c-7.32,24.26-28.38,38.45-53.56,38.45
		s-46.46-13.96-53.55-38.45l38.91,3.24l0.22-0.3c8.5-11.176,8.41-26.674-0.22-37.75v-0.01l-38.68,3.01
		c6.41-27.92,27.69-41.42,52.87-41.42c22.88,0,43.02,15.1,51.72,33.41h112.62C280.65,14.19,301.71,0,326.88,0
		C351.83,0.23,373.12,14.19,380.21,38.68z"/>
	<g>
		<path style="fill:#D4E1F4;" d="M341.7,253.49h-96.66c0-26.692,21.638-48.33,48.33-48.33
			C320.062,205.16,341.7,226.798,341.7,253.49z"/>
		<path style="fill:#D4E1F4;" d="M107.46,385.59v24.39c-0.004,14.424-11.696,26.116-26.12,26.12H59.57
			c-14.428,0.001-26.125-11.692-26.13-26.12v-50.95c0.001,14.431,11.699,26.129,26.13,26.13h47.89V385.59z"/>
	</g>
	<g>
		<path style="fill:#00ACEA;" d="M351.7,253.49h-20c-0.004-21.169-17.168-38.327-38.337-38.323
			c-21.164,0.004-38.319,17.159-38.323,38.323h-20c0.004-32.215,26.122-58.327,58.337-58.323
			C325.586,195.171,351.696,221.281,351.7,253.49z"/>
		<path style="fill:#00ACEA;" d="M257.89,347.09h-79.68c-5.523,0-10-4.477-10-10s4.477-10,10-10h79.68c5.523,0,10,4.477,10,10
			S263.413,347.09,257.89,347.09z"/>
		<path style="fill:#00ACEA;" d="M257.89,321.84h-79.68c-5.523,0-10-4.477-10-10s4.477-10,10-10h79.68c5.523,0,10,4.477,10,10
			S263.413,321.84,257.89,321.84z"/>
	</g>
	<g>
		<rect x="302.08" y="303.13" style="fill:#D4E1F4;" width="62.26" height="42.67"/>
		<rect x="71.76" y="303.13" style="fill:#D4E1F4;" width="62.26" height="42.67"/>
	</g>
</g>
<g>
</g>
<g>
</g>
<g>
</g>
<g>
</g>
<g>
</g>
<g>
</g>
<g>
</g>
<g>
</g>
<g>
</g>
<g>
</g>
<g>
</g>
<g>
</g>
<g>
</g>
<g>
</g>
<g>
</g>
</svg>
