<?xml version="1.0" encoding="utf-8"?>
<!-- Generator: Adobe Illustrator 22.0.0, SVG Export Plug-In . SVG Version: 6.00 Build 0)  -->
<svg version="1.1" id="Capa_1" xmlns="http://www.w3.org/2000/svg" xmlns:xlink="http://www.w3.org/1999/xlink" x="0px" y="0px"
	 viewBox="0 0 512 512" style="enable-background:new 0 0 512 512;" xml:space="preserve">
<style type="text/css">
	.st0{fill:#A0EBFF;}
	.st1{fill:#6EE1FF;}
	.st2{opacity:0.5;fill:#FFFFFF;enable-background:new    ;}
	.st3{opacity:0.61;fill:#FFFFFF;enable-background:new    ;}
	.st4{fill:#50555A;}
	.st5{fill:#F75C66;}
	.st6{fill:#E64B55;}
	.st7{fill:#D72846;}
	.st8{fill:#1E87DC;}
	.st9{fill:#FAC855;}
	.st10{fill:#FF640A;}
	.st11{fill:#1E73BE;}
	.st12{fill:#373C41;}
	.st13{fill:#696E73;}
	.st14{fill:#82878C;}
	.st15{fill:#1B224A;}
	.st16{fill:#FFB69E;}
	.st17{fill:#FFFFFF;}
	.st18{fill:#5F6E9B;}
	.st19{fill:#414B82;}
	.st20{fill:#252D5C;}
	.st21{fill:#64AFFF;}
	.st22{fill:#BA6746;}
	.st23{fill:#292D30;}
	.st24{fill:#80391B;}
	.st25{fill:#648AFF;}
	.st26{fill:#703014;}
</style>
<g>
	<polygon class="st0" points="254.8,245.8 467.7,245.8 450.1,165.4 303.5,165.4 	"/>
	<polygon class="st0" points="262.1,242.9 467.4,242.9 450.5,165.3 309.1,165.3 	"/>
</g>
<polygon class="st1" points="296.4,178 303.5,166.2 450.1,166.2 452.7,178 "/>
<g>
	<polygon class="st2" points="399.9,166.9 439.2,244.4 458.8,244.4 419.4,166.9 	"/>
	<polygon class="st2" points="364.6,244.4 384.1,244.4 344.8,166.9 325.3,166.9 	"/>
	<polygon class="st3" points="348.6,244.4 358.3,244.4 319,166.9 309.3,166.9 	"/>
</g>
<path class="st4" d="M465.2,347.3h44.1c1.5,0,2.7-1.2,2.7-2.7v-13.5c0-1.5-1.2-2.7-2.7-2.7h-44.1L465.2,347.3L465.2,347.3z"/>
<path class="st5" d="M157.1,345.9c0.3,0.1,13.3,1.4,13.3,1.4h292.8c0,0,24.4-0.6,25-0.6v-90.3l-20.5-90.9c-2-8.9-10-15.4-19.2-15.4
	H308.3c-7.1,0-13.7,3.9-17.1,10.1l-37.8,67.8h-57.7c-21.3,0-38.6,17.3-38.6,38.6C157.1,293,157.1,339.5,157.1,345.9z M309.6,171.9
	h71.2v65.7h-97.1v-0.1h-10.8L309.6,171.9z M461.1,237.6h-58.4v-65.7h44L461.1,237.6z"/>
<path class="st6" d="M141.9,324.6c0,12.6,10.2,22.7,22.7,22.7h324.5c5.1,0,9.3-4.2,9.3-9.3v-26.9c0-5.1-4.2-9.3-9.3-9.3H164.7
	C152.1,301.8,141.9,312,141.9,324.6z"/>
<path class="st7" d="M342.6,266.8H366c4.4,0,8-3.6,8-8s-3.6-8-8-8h-23.5c-4.4,0-8,3.6-8,8C334.6,263.3,338.1,266.8,342.6,266.8z"/>
<path class="st8" d="M173.6,268.5c8.1,0,14.7,6.6,14.7,14.7s-6.6,14.7-14.7,14.7h-16.5c0-5.7,0-23.1,0-29.4L173.6,268.5L173.6,268.5
	z"/>
<path class="st9" d="M157.2,263h16.3c8.1,0,14.7,6.6,14.7,14.7c0,8.1-6.6,14.7-14.7,14.7h-16.5c0-5.4,0-20.7,0-25.9
	C157.1,265.3,157.1,264.1,157.2,263z"/>
<path class="st10" d="M475.8,301.8h12.3v-35h-12.3c-2.4,0-4.3,1.9-4.3,4.3v26.4C471.5,299.9,473.5,301.8,475.8,301.8z"/>
<path class="st11" d="M278.7,347.3h-95.4l0,0c0-26.9,21.8-48.7,48.7-48.7c26.9,0,48.7,21.8,48.7,48.7
	C279.5,347.3,278.7,347.3,278.7,347.3z"/>
<circle class="st12" cx="232.1" cy="347.3" r="37.6"/>
<circle class="st13" cx="232.1" cy="347.3" r="15.3"/>
<path class="st14" d="M232,332.1v30.5c-8.4,0-15.3-6.8-15.3-15.3S223.6,332.1,232,332.1z"/>
<g>
	<rect x="380.8" y="171.9" class="st6" width="21.9" height="5.9"/>
	<rect x="276.3" y="237.6" class="st6" width="184.9" height="6.4"/>
</g>
<path class="st7" d="M276.3,244h16.2v-32.3h-16.2c-8.9,0-16.2,7.2-16.2,16.2l0,0C260.1,236.8,267.3,244,276.3,244z"/>
<g>
	<path class="st6" d="M163.7,244.8c6.9-10.2,18.6-17,31.9-17h57.7c-6.4,10.5-17.9,17-30.3,17H163.7z"/>
	<rect x="389.2" y="240.8" class="st6" width="6.3" height="66.2"/>
</g>
<path class="st7" d="M463.2,347.3h-95.4l0,0c0-26.9,21.8-48.7,48.7-48.7c26.9,0,48.7,21.8,48.7,48.7
	C463.9,347.3,463.2,347.3,463.2,347.3z"/>
<circle class="st12" cx="416.5" cy="347.3" r="37.6"/>
<circle class="st13" cx="416.5" cy="347.3" r="15.3"/>
<path class="st14" d="M416.5,332.1v30.5c-8.4,0-15.3-6.8-15.3-15.3S408.1,332.1,416.5,332.1z"/>
<path class="st13" d="M315.1,140.2h127.7c2.4,0,4.3-1.9,4.3-4.3l0,0c0-2.4-1.9-4.3-4.3-4.3H315.1c-2.4,0-4.3,1.9-4.3,4.3l0,0
	C310.9,138.3,312.8,140.2,315.1,140.2z"/>
<g>
	<path class="st14" d="M423,150h9.3v-20.8c0-2.6-2.1-4.7-4.7-4.7s-4.7,2.1-4.7,4.7L423,150L423,150z"/>
	<path class="st14" d="M325.7,150h9.3v-20.8c0-2.6-2.1-4.7-4.7-4.7s-4.7,2.1-4.7,4.7L325.7,150L325.7,150z"/>
</g>
<path class="st15" d="M115.1,245.9c-5.3,0-10.5-2.8-13.3-7.7c-4.2-7.4-1.7-16.7,5.7-20.9l111.7-63.8c7.4-4.2,16.7-1.7,20.9,5.7
	s1.7,16.7-5.7,20.9l-111.7,63.8C120.3,245.3,117.6,245.9,115.1,245.9z"/>
<path class="st16" d="M107.4,217.2c-7.4,4.2-9.9,13.6-5.7,20.9c2.8,5,8,7.7,13.3,7.7c2.6,0,5.2-0.7,7.6-2L107.4,217.2z"/>
<polygon class="st17" points="113.8,213.5 107.4,217.2 122.7,243.9 129.5,240 "/>
<path class="st18" d="M224.6,273.5v144.4c0,10.1,7.8,18.4,17.4,18.4h0.1c9.6,0,17.4-8.3,17.3-18.5V273.5H224.6z"/>
<path class="st19" d="M182.7,273.5l0,144.3c0,10.2,7.8,18.4,17.4,18.4c0,0,0,0,0,0c9.6,0,17.4-8.2,17.4-18.4l0-144.4L182.7,273.5
	L182.7,273.5L182.7,273.5z"/>
<path class="st20" d="M182.7,281.8h76.7V171.6c0-11.9-9.1-21.5-20.3-21.5H203c-11.2,0-20.3,9.6-20.3,21.5L182.7,281.8L182.7,281.8z"
	/>
<path class="st19" d="M41.8,273.1l0,144.8c0,10.2,7.8,18.4,17.3,18.4s17.3-8.2,17.3-18.4l0-144.8L41.8,273.1L41.8,273.1z"/>
<path class="st18" d="M0,273.1v144.8c0,10.2,7.7,18.4,17.3,18.5h0c9.5,0,17.3-8.2,17.3-18.4V273.1H0z"/>
<path class="st21" d="M76.4,281.8H0V171.6c0-11.9,9-21.5,20.2-21.5h36c11.2,0,20.2,9.6,20.2,21.5C76.4,171.6,76.4,281.8,76.4,281.8z
	"/>
<circle class="st22" cx="37.7" cy="107.5" r="31.8"/>
<circle class="st16" cx="218.2" cy="107.5" r="31.8"/>
<path class="st23" d="M251.6,333.3h-36.9c-4.3,0-7.8-3.5-7.8-7.8v-36.9c0-4.3,3.5-7.8,7.8-7.8h36.9c4.3,0,7.8,3.5,7.8,7.8v36.9
	C259.4,329.8,255.9,333.3,251.6,333.3z M222.6,317.7h21.2v-21.2h-21.2V317.7z"/>
<path class="st24" d="M283.6,372.9c0,4.5-3.6,8.1-8.1,8.1h-84.7c-4.5,0-8.1-3.6-8.1-8.1v-53.4c0-4.5,3.6-8.1,8.1-8.1h84.7
	c4.5,0,8.1,3.6,8.1,8.1V372.9z"/>
<path class="st15" d="M230.4,301c-8.4-1.3-14.1-9.2-12.7-17.6l8.3-51.4l-21.2-59.9c-2.8-8,1.4-16.8,9.3-19.6
	c8-2.8,16.8,1.4,19.6,9.3l22.5,63.6c0.9,2.4,1.1,5,0.7,7.6l-8.9,55.3C246.6,296.6,238.8,302.4,230.4,301z"/>
<path class="st16" d="M217.7,283.4c-1.3,8.4,4.3,16.2,12.7,17.6c8.4,1.3,16.2-4.4,17.6-12.7L217.7,283.4z"/>
<path class="st22" d="M118.4,235.8c-0.6,0-1.2,0-1.8-0.1l-53.4-6.3c-3.4-0.4-6.6-1.9-9-4.4L9.9,181c-6-6-6-15.7-0.1-21.7
	c6-6,15.7-6,21.7-0.1L72,199.5l48.2,5.7c8.4,1,14.4,8.6,13.4,17C132.7,230,126.1,235.8,118.4,235.8z"/>
<path class="st25" d="M62,189.5l-30.5-30.3c-6-6-15.7-5.9-21.7,0.1c-6,6-5.9,15.7,0.1,21.7l30.7,30.5L62,189.5z"/>
<polygon class="st17" points="218.8,276.1 217.7,283.4 248,288.3 249.2,280.6 "/>
<path class="st26" d="M275.5,311.3h-42.4V381h42.4c4.5,0,8.1-3.6,8.1-8.1v-53.4C283.6,315,280,311.3,275.5,311.3z"/>
</svg>
