<?xml version="1.0" encoding="utf-8"?>
<!-- Generator: Adobe Illustrator 22.0.0, SVG Export Plug-In . SVG Version: 6.00 Build 0)  -->
<svg version="1.1" id="Capa_1" xmlns="http://www.w3.org/2000/svg" xmlns:xlink="http://www.w3.org/1999/xlink" x="0px" y="0px"
	 viewBox="0 0 512 512" style="enable-background:new 0 0 512 512;" xml:space="preserve">
<style type="text/css">
	.st0{fill:#A0EBFF;}
	.st1{fill:#6EE1FF;}
	.st2{opacity:0.5;fill:#FFFFFF;enable-background:new    ;}
	.st3{opacity:0.74;fill:#FFFFFF;enable-background:new    ;}
	.st4{fill:#373C41;}
	.st5{fill:#50555A;}
	.st6{fill:#FA870A;}
	.st7{fill:#FA690F;}
	.st8{fill:#696E73;}
	.st9{fill:#82878C;}
	.st10{opacity:0.61;fill:#FFFFFF;enable-background:new    ;}
	.st11{fill:#F75C66;}
	.st12{fill:#E64B55;}
	.st13{fill:#D72846;}
	.st14{fill:#1E87DC;}
	.st15{fill:#FAC855;}
	.st16{fill:#FF640A;}
	.st17{fill:#FFA50A;}
	.st18{fill:#EB630E;}
	.st19{fill:#FFB69E;}
	.st20{fill:#53618C;}
	.st21{fill:#414B82;}
	.st22{fill:#64AFFF;}
</style>
<polygon class="st0" points="386.9,143.3 318,143.3 318,230.7 436.9,230.7 "/>
<polygon class="st1" points="396.6,160.3 386.9,143.3 318,143.3 318,160.3 "/>
<g>
	<polygon class="st2" points="378.2,150.3 358.7,150.3 325.3,223.3 344.9,223.3 	"/>
	<polygon class="st3" points="394.9,150.3 384.3,150.3 350.9,223.3 361.5,223.3 	"/>
</g>
<path class="st4" d="M177.6,103.3c-11.9,0-21.5-9.7-21.5-21.5c0-3.7,3-6.7,6.7-6.7c3.7,0,6.7,3,6.7,6.7c0,4.5,3.7,8.2,8.2,8.2
	c4.5,0,8.2-3.7,8.2-8.2s-3.7-8.2-8.2-8.2c-3.7,0-6.7-3-6.7-6.7v-45c0-3.7,3-6.7,6.7-6.7c3.7,0,6.7,3,6.7,6.7v39.4
	c8.6,2.8,14.9,10.9,14.9,20.5C199.1,93.6,189.5,103.3,177.6,103.3z"/>
<path class="st5" d="M276.9,288.9c-6.7,0-12.2-5.5-12.2-12.2V119.9l-90.2-89.4c-4.8-4.7-4.8-12.5-0.1-17.2
	c4.7-4.8,12.5-4.8,17.2-0.1l93.8,93c2.3,2.3,3.6,5.4,3.6,8.7v161.9C289.1,283.4,283.7,288.9,276.9,288.9z"/>
<path class="st6" d="M512,266.2c0-23.7-19.2-42.9-42.9-42.9h-22.5l-48.3-86.2c-3.9-6.9-11.2-11.2-19.1-11.2h-66.1
	c-6.7,0-12.2,5.5-12.2,12.2c0,8.2,0,97.8,0,131.8H11.3C5.1,269.9,0,275,0,281.2v37.5c0,6.2,5.1,11.3,11.3,11.3h489.4
	c6.2,0,11.3-5.1,11.3-11.3V266.2z M377.8,150.3l40.9,73h-93.3v-73H377.8z"/>
<g>
	<rect y="313" class="st7" width="512" height="22"/>
	<path class="st7" d="M55.8,330.1h117.3l0,0c0-33.1-26.8-59.9-59.9-59.9c-33.1,0-59.9,26.8-59.9,59.9
		C54.8,330,55.8,330.1,55.8,330.1z"/>
</g>
<circle class="st4" cx="113.2" cy="330.5" r="43.2"/>
<circle class="st8" cx="113.2" cy="330.5" r="17.5"/>
<path class="st9" d="M113.2,313v35c9.7,0,17.5-7.8,17.5-17.5C130.7,320.9,122.8,313,113.2,313z"/>
<path class="st7" d="M332.5,330.1h117.3l0,0c0-33.1-26.8-59.9-59.9-59.9c-33.1,0-59.9,26.8-59.9,59.9
	C331.5,330,332.5,330.1,332.5,330.1z"/>
<circle class="st4" cx="389.9" cy="330.5" r="43.2"/>
<circle class="st8" cx="389.9" cy="330.5" r="17.5"/>
<path class="st9" d="M389.9,313v35c9.7,0,17.5-7.8,17.5-17.5C407.4,320.9,399.6,313,389.9,313z"/>
<path class="st0" d="M34.4,171.6h140.4l-29.7-49H43.8L33,171.6C33.5,171.6,33.9,171.6,34.4,171.6z"/>
<polygon class="st1" points="148.5,128.7 143.6,120.7 44.3,120.7 42.5,128.7 "/>
<g>
	<polygon class="st2" points="52.7,171.6 77.6,122.5 64.4,122.5 39.5,171.6 	"/>
	<polygon class="st2" points="103.3,171.6 128.2,122.5 114.9,122.5 90.1,171.6 	"/>
	<polygon class="st10" points="114.2,171.6 139.1,122.5 132.4,122.5 107.6,171.6 	"/>
</g>
<path class="st5" d="M34,243.4H4.1c-1,0-1.8-0.8-1.8-1.8v-9.1c0-1,0.8-1.8,1.8-1.8H34C34,230.7,34,243.4,34,243.4z"/>
<path class="st11" d="M242.9,188.6c0-14.4-11.7-26.1-26.1-26.1h-39.1l-25.6-46c-2.4-4.2-6.8-6.8-11.6-6.8h-95
	c-6.2,0-11.7,4.4-13,10.5l-13.9,61.6v61.2c0.4,0,17,0.4,17,0.4c141.4-0.6,200.2,1.1,207.5-1C242.9,238.2,242.9,206.7,242.9,188.6z
	 M164.4,169h-7.3v0.1H91.3v-44.5h48.3L164.4,169z M46.6,124.6h29.8v44.5H36.8L46.6,124.6z"/>
<path class="st12" d="M253.2,228.1c0,8.5-6.9,15.4-15.4,15.4h-220c-3.5,0-6.3-2.8-6.3-6.3v-18.2c0-3.5,2.8-6.3,6.3-6.3h220
	C246.3,212.6,253.2,219.5,253.2,228.1z"/>
<path class="st13" d="M117.2,188.9h-15.9c-3,0-5.4-2.4-5.4-5.4s2.4-5.4,5.4-5.4h15.9c3,0,5.4,2.4,5.4,5.4
	C122.6,186.5,120.2,188.9,117.2,188.9z"/>
<path class="st14" d="M231.7,190.1c-5.5,0-10,4.5-10,10c0,5.5,4.5,10,10,10h11.2c0-3.9,0-15.7,0-19.9L231.7,190.1L231.7,190.1z"/>
<path class="st15" d="M242.8,186.3h-11.1c-5.5,0-10,4.5-10,10c0,5.5,4.5,10,10,10h11.2c0-3.6,0-14,0-17.6
	C242.9,187.9,242.9,187.1,242.8,186.3z"/>
<path class="st16" d="M29.8,209.7c0,1.6-1.3,2.9-2.9,2.9h-8.4v-23.7h8.4c1.6,0,2.9,1.3,2.9,2.9C29.8,191.8,29.8,209.7,29.8,209.7z"
	/>
<path class="st13" d="M160.5,243.5h64.7l0,0c0-18.2-14.8-33-33-33c-18.2,0-33,14.8-33,33C159.9,243.5,160.5,243.5,160.5,243.5z"/>
<circle class="st4" cx="192.1" cy="243.5" r="25.5"/>
<circle class="st8" cx="192.1" cy="243.5" r="10.3"/>
<path class="st9" d="M192.1,233.1v20.7c5.7,0,10.3-4.6,10.3-10.3S197.8,233.1,192.1,233.1z"/>
<g>
	<rect x="76.4" y="124.6" class="st12" width="14.8" height="4"/>
	<rect x="36.8" y="169.1" class="st12" width="125.3" height="4.4"/>
</g>
<path class="st13" d="M173.1,162.5c0,6.1-4.9,11-11,11h-11v-21.9h11C168.2,151.5,173.1,156.5,173.1,162.5L173.1,162.5z"/>
<g>
	<path class="st12" d="M238.4,174c-4.7-6.9-12.6-11.5-21.6-11.5h-39.1c4.4,7.1,12.1,11.5,20.5,11.5H238.4z"/>
	<rect x="81.3" y="171.3" class="st12" width="4.3" height="44.8"/>
</g>
<path class="st13" d="M35.4,243.5h64.7l0,0c0-18.2-14.8-33-33-33c-18.2,0-33,14.8-33,33C34.9,243.5,35.4,243.5,35.4,243.5z"/>
<ellipse transform="matrix(4.531440e-02 -0.999 0.999 4.531440e-02 -179.1756 299.4446)" class="st4" cx="67.1" cy="243.5" rx="25.5" ry="25.5"/>
<circle class="st8" cx="67.1" cy="243.5" r="10.3"/>
<path class="st9" d="M67.1,233.1v20.7c5.7,0,10.3-4.6,10.3-10.3C77.4,237.8,72.8,233.1,67.1,233.1z"/>
<path class="st8" d="M138.7,100.2c0,1.6-1.3,2.9-2.9,2.9H49.2c-1.6,0-2.9-1.3-2.9-2.9l0,0c0-1.6,1.3-2.9,2.9-2.9h86.6
	C137.4,97.3,138.7,98.6,138.7,100.2L138.7,100.2z"/>
<g>
	<path class="st9" d="M62.6,109.7h-6.3V95.6c0-1.7,1.4-3.2,3.2-3.2s3.2,1.4,3.2,3.2L62.6,109.7L62.6,109.7z"/>
	<path class="st9" d="M128.6,109.7h-6.3V95.6c0-1.7,1.4-3.2,3.2-3.2c1.7,0,3.2,1.4,3.2,3.2L128.6,109.7L128.6,109.7z"/>
</g>
<path class="st7" d="M477.3,274.7c0,9,7.3,16.4,16.4,16.4H512v-18.2c0-5.1-0.9-10-2.5-14.5h-15.8
	C484.6,258.4,477.3,265.7,477.3,274.7z"/>
<path class="st17" d="M477.3,268.1c0,9,7.3,16.4,16.4,16.4H512v-18.2c0-5.1-0.9-10-2.5-14.5h-15.8
	C484.6,251.7,477.3,259,477.3,268.1z"/>
<path class="st18" d="M429.8,213.8c0,5.2-4.2,9.4-9.4,9.4h-13.8v-48.5h13.8c5.2,0,9.4,4.2,9.4,9.4L429.8,213.8L429.8,213.8z"/>
<path id="SVGCleanerId_0" class="st19" d="M411.1,243.3c-0.1-18.7-15.1-33.8-33.8-33.8c-42.3,0-45.2,0-73,0
	c-12.5,0-24.3,5.5-32.3,15L245.4,256l-29.6,4.8l-4.9-9c-1.8-3.3-5.9-4.5-9.1-2.7c-3.3,1.8-4.5,5.9-2.7,9.1l2.7,4.9l-1.4,0.2
	c-7.8,1.3-13.2,8.7-11.9,16.5c1.3,7.8,8.6,13.2,16.5,11.9l50.4-8.2c3.4-0.5,6.5-2.3,8.7-4.9l30-35.6c1.7-2,4-3.5,6.5-4.2v246.3
	c0,9.5,7.7,17.2,17.2,17.2s17.2-7.7,17.2-17.2V347.3h7.4v137.8c0,9.5,7.7,17.2,17.2,17.2s17.2-7.7,17.2-17.2V238.2h0.4
	c2.9,0,5,2.4,5,5.1V349c0,7.9,6.4,14.4,14.3,14.4c0,0,0,0,0,0c7.9,0,14.4-6.4,14.4-14.3L411.1,243.3L411.1,243.3z"/>
<circle class="st19" cx="338.7" cy="170.2" r="29.8"/>
<g>
	<path id="SVGCleanerId_0_1_" class="st19" d="M411.1,243.3c-0.1-18.7-15.1-33.8-33.8-33.8c-42.3,0-45.2,0-73,0
		c-12.5,0-24.3,5.5-32.3,15L245.4,256l-29.6,4.8l-4.9-9c-1.8-3.3-5.9-4.5-9.1-2.7c-3.3,1.8-4.5,5.9-2.7,9.1l2.7,4.9l-1.4,0.2
		c-7.8,1.3-13.2,8.7-11.9,16.5c1.3,7.8,8.6,13.2,16.5,11.9l50.4-8.2c3.4-0.5,6.5-2.3,8.7-4.9l30-35.6c1.7-2,4-3.5,6.5-4.2v246.3
		c0,9.5,7.7,17.2,17.2,17.2s17.2-7.7,17.2-17.2V347.3h7.4v137.8c0,9.5,7.7,17.2,17.2,17.2s17.2-7.7,17.2-17.2V238.2h0.4
		c2.9,0,5,2.4,5,5.1V349c0,7.9,6.4,14.4,14.3,14.4c0,0,0,0,0,0c7.9,0,14.4-6.4,14.4-14.3L411.1,243.3L411.1,243.3z"/>
</g>
<path class="st20" d="M300.5,347.3v137.8c0,9.5,7.7,17.2,17.2,17.2s17.2-7.7,17.2-17.2V347.3H300.5z"/>
<path class="st21" d="M342.5,347.3v137.8c0,9.5,7.7,17.2,17.2,17.2s17.2-7.7,17.2-17.2V347.3H342.5z"/>
<path class="st22" d="M377.4,209.5h-23.4c0,8.5-7.3,15.8-15.8,15.8c-8.6,0-15.8-7.2-15.8-15.8h-18c-12.5,0-24.3,5.5-32.3,15
	l-16.7,19.8l20.5,20.3L294,243c1.7-2,4-3.5,6.5-4.2v108.4h76.4v-109h0.4c2.9,0,5,2.4,5,5.1v32.7h28.7v-32.8
	C411.1,224.7,396,209.5,377.4,209.5z"/>
</svg>
