<?xml version="1.0" encoding="iso-8859-1"?>
<!-- Generator: Adobe Illustrator 19.0.0, SVG Export Plug-In . SVG Version: 6.00 Build 0)  -->
<svg version="1.1" id="Capa_1" xmlns="http://www.w3.org/2000/svg" xmlns:xlink="http://www.w3.org/1999/xlink" x="0px" y="0px"
	 viewBox="0 0 417.48 417.48" style="enable-background:new 0 0 417.48 417.48;" xml:space="preserve">
<g>
	<path style="fill:#D4E1F4;" d="M417.48,198.13l-20.73,25.15l-23.55-21.67v214.63h-332V202.02L19,223.39L0,198.02L212.27,16.8
		l46.93,39.53V1.24h67v117.64L417.48,198.13z"/>
</g>
<g>
	<path style="fill:#00ACEA;" d="M331.1,327.7v34.23c-0.002,9.692-7.858,17.548-17.55,17.55h-14.63
		c-9.692-0.002-17.548-7.858-17.55-17.55v-16.68h32.18c9.691,0.002,17.548-7.853,17.55-17.544
		C331.1,327.704,331.1,327.702,331.1,327.7z"/>
</g>
<g>
	<path style="fill:#00EFD1;" d="M331.1,323.31v4.39c0.002,9.691-7.853,17.548-17.544,17.55c-0.002,0-0.004,0-0.006,0H100.58
		c-9.692,0.006-17.554-7.846-17.56-17.538c0-0.004,0-0.008,0-0.012v-43.68c-0.002-7.735,3.399-15.079,9.3-20.08l10.01-8.5H315.3v0.3
		l7.55,7.12c5.262,4.976,8.245,11.898,8.25,19.14V323.31z M305.36,317.46v-28.67h-41.84v28.67H305.36z M150.6,317.46v-28.67h-41.83
		v28.67H150.6z"/>
</g>
<g>
	<path style="fill:#00ACEA;" d="M296.14,201.37l20.04,54.07h-26.04c-0.004-17.933-14.544-32.467-32.477-32.463
		c-17.927,0.004-32.459,14.536-32.463,32.463H101.45l20.04-54.07c2.549-6.887,9.116-11.459,16.46-11.46h141.73
		C287.025,189.908,293.593,194.481,296.14,201.37z"/>
</g>
<g>
	<rect x="263.52" y="288.79" style="fill:#D4E1F4;" width="41.84" height="28.67"/>
</g>
<g>
	<path style="fill:#00ACEA;" d="M290.14,255.44H225.2c0.004-17.933,14.544-32.467,32.477-32.463
		C275.604,222.981,290.136,237.513,290.14,255.44z"/>
</g>
<g>
	<rect x="108.77" y="288.79" style="fill:#D4E1F4;" width="41.83" height="28.67"/>
</g>
<g>
	<path style="fill:#00ACEA;" d="M132.76,345.55v16.38c-0.003,9.695-7.865,17.553-17.56,17.55h-14.62
		c-9.695,0.003-17.557-7.855-17.56-17.55V327.7c-0.001,9.692,7.856,17.549,17.548,17.55c0.004,0,0.008,0,0.012,0h32.18V345.55z"/>
</g>
<g>
	<path style="fill:#00CEB4;" d="M300.14,255.44h-20c0-12.41-10.06-22.47-22.47-22.47c-12.41,0-22.47,10.06-22.47,22.47h-20
		c0.004-23.456,19.021-42.467,42.477-42.463C281.127,212.981,300.136,231.99,300.14,255.44z"/>
</g>
<g>
	<path style="fill:#00ACEA;" d="M233.83,326.8h-53.54c-5.523,0-10-4.477-10-10s4.477-10,10-10h53.54c5.523,0,10,4.477,10,10
		S239.353,326.8,233.83,326.8z"/>
</g>
<g>
	<path style="fill:#00ACEA;" d="M233.83,299.46h-53.54c-5.523,0-10-4.477-10-10s4.477-10,10-10h53.54c5.523,0,10,4.477,10,10
		S239.353,299.46,233.83,299.46z"/>
</g>
<g>
</g>
<g>
</g>
<g>
</g>
<g>
</g>
<g>
</g>
<g>
</g>
<g>
</g>
<g>
</g>
<g>
</g>
<g>
</g>
<g>
</g>
<g>
</g>
<g>
</g>
<g>
</g>
<g>
</g>
</svg>
